<?xml version="1.0" standalone="no"?>
<!DOCTYPE svg PUBLIC "-//W3C//DTD SVG 20010904//EN"
 "http://www.w3.org/TR/2001/REC-SVG-20010904/DTD/svg10.dtd">
<svg version="1.0" xmlns="http://www.w3.org/2000/svg"
 width="336.000000pt" height="336.000000pt" viewBox="0 0 336.000000 336.000000"
 preserveAspectRatio="xMidYMid meet">
<metadata>
Created by potrace 1.11, written by Peter Selinger 2001-2013
</metadata>
<g transform="translate(0.000000,336.000000) scale(0.100000,-0.100000)"
fill="#000000" stroke="none">
<path d="M1335 3171 c-23 -10 -48 -29 -57 -43 -9 -13 -75 -201 -148 -418 -73
-217 -137 -403 -142 -412 -8 -17 -38 -18 -412 -18 -402 0 -403 0 -437 -23 -74
-49 -69 19 -67 -1044 3 -945 3 -952 24 -980 11 -15 36 -36 55 -45 32 -17 99
-18 974 -18 1049 0 983 -4 1032 69 22 33 23 42 23 247 0 168 3 214 13 214 7 0
80 -22 162 -50 89 -30 167 -50 193 -50 52 0 106 29 126 68 7 15 145 423 305
907 219 659 291 888 286 910 -8 44 -40 92 -73 109 -42 22 -1775 596 -1798 596
-10 0 -37 -9 -59 -19z m994 -602 c321 -107 586 -199 588 -206 5 -13 -453
-1401 -467 -1417 -11 -11 -1430 462 -1430 477 0 7 106 330 235 718 l236 707
127 -42 c70 -23 390 -130 711 -237z m-1449 -597 c0 -4 -43 -136 -95 -292 -113
-337 -118 -355 -104 -402 20 -76 34 -82 626 -278 301 -101 554 -185 561 -187
9 -4 12 -48 12 -174 l0 -169 -755 0 -755 0 0 755 0 755 255 0 c140 0 255 -3
255 -8z"/>
</g>
</svg>
